<svg xmlns="http://www.w3.org/2000/svg" viewBox="0 0 128 128" role="img" aria-label="Latch">
  <defs>
    <linearGradient id="surface" x1="20" y1="12" x2="108" y2="116" gradientUnits="userSpaceOnUse">
      <stop stop-color="#D9F7AA" />
      <stop offset="1" stop-color="#C7E98F" />
    </linearGradient>
    <linearGradient id="spiral" x1="30" y1="34" x2="94" y2="94" gradientUnits="userSpaceOnUse">
      <stop stop-color="#5F8747" />
      <stop offset="1" stop-color="#88A85F" />
    </linearGradient>
  </defs>
  <rect width="128" height="128" rx="30" fill="url(#surface)" />
  <path
    d="M35 84C50 93 72 90 86 77C101 63 98 43 82 35C65 27 46 36 39 53C31 72 43 91 63 94C81 97 96 84 95 66C94 51 82 42 68 45C55 48 49 61 54 72C59 82 72 84 80 77"
    fill="none"
    stroke="url(#spiral)"
    stroke-width="8.5"
    stroke-linecap="round"
    stroke-linejoin="round"
  />
</svg>
