<svg xmlns="http://www.w3.org/2000/svg" viewBox="0 0 128 128" role="img" aria-label="Latch">
  <defs>
    <linearGradient id="surface" x1="20" y1="12" x2="108" y2="116" gradientUnits="userSpaceOnUse">
      <stop stop-color="#D9F7AA" />
      <stop offset="1" stop-color="#C7E98F" />
    </linearGradient>
    <linearGradient id="spiral" x1="28" y1="34" x2="98" y2="94" gradientUnits="userSpaceOnUse">
      <stop stop-color="#5F8747" />
      <stop offset="1" stop-color="#88A85F" />
    </linearGradient>
  </defs>
  <rect width="128" height="128" fill="url(#surface)" />
  <path
    d="M32 84C49 94 73 91 88 77C104 62 100 41 83 33C65 25 44 35 36 53C28 74 42 94 64 97C84 100 100 85 99 66C98 50 84 40 68 43C54 46 47 61 53 73C58 84 73 86 82 78"
    fill="none"
    stroke="url(#spiral)"
    stroke-width="8.5"
    stroke-linecap="round"
    stroke-linejoin="round"
  />
</svg>
